<svg width="53" height="53" viewBox="0 0 53 53" fill="none" xmlns="http://www.w3.org/2000/svg">
<circle cx="26.5" cy="26.5" r="25.5" stroke="#E42A2B" stroke-width="2"/>
<path d="M27.728 38H24.198C23.6084 38 23.1287 37.5213 23.1287 36.9328V28.9863H21.0693C20.4796 28.9863 20 28.5074 20 27.9191V24.514C20 23.9256 20.4796 23.4469 21.0693 23.4469H23.1287V21.7417C23.1287 20.051 23.6607 18.6125 24.6669 17.5821C25.6776 16.547 27.0901 16 28.7517 16L31.4438 16.0044C32.0324 16.0054 32.5112 16.4841 32.5112 17.0715V20.2331C32.5112 20.8216 32.0318 21.3003 31.4423 21.3003L29.6297 21.3009C29.0769 21.3009 28.9362 21.4115 28.9061 21.4455C28.8564 21.5017 28.7974 21.6606 28.7974 22.0995V23.4467H31.3061C31.4949 23.4467 31.6779 23.4932 31.8352 23.5808C32.1744 23.77 32.3853 24.1276 32.3853 24.5142L32.3839 27.9193C32.3839 28.5074 31.9043 28.9861 31.3147 28.9861H28.7974V36.9328C28.7974 37.5213 28.3176 38 27.728 38ZM24.421 36.7103H27.505V28.4089C27.505 28.016 27.8254 27.6964 28.2189 27.6964H31.0917L31.0928 24.7366H28.2187C27.8252 24.7366 27.505 24.417 27.505 24.0241V22.0995C27.505 21.5957 27.5563 21.0226 27.9374 20.592C28.3978 20.0713 29.1235 20.0112 29.6294 20.0112L31.219 20.0105V17.2938L28.7507 17.2897C26.0804 17.2897 24.421 18.9957 24.421 21.7417V24.0241C24.421 24.4168 24.1008 24.7366 23.7073 24.7366H21.2923V27.6964H23.7073C24.1008 27.6964 24.421 28.016 24.421 28.4089V36.7103Z" fill="#E42A2B"/>
<path d="M24.421 36.7103H27.505V28.4089C27.505 28.016 27.8254 27.6964 28.2189 27.6964H31.0917L31.0928 24.7366H28.2187C27.8252 24.7366 27.505 24.417 27.505 24.0241V22.0995C27.505 21.5957 27.5563 21.0226 27.9374 20.592C28.3978 20.0713 29.1235 20.0112 29.6294 20.0112L31.219 20.0105V17.2938L28.7507 17.2897C26.0804 17.2897 24.421 18.9957 24.421 21.7417V24.0241C24.421 24.4168 24.1008 24.7366 23.7073 24.7366H21.2923V27.6964H23.7073C24.1008 27.6964 24.421 28.016 24.421 28.4089V36.7103Z" fill="#E42A2B"/>
</svg>
