<svg width="53" height="53" viewBox="0 0 53 53" fill="none" xmlns="http://www.w3.org/2000/svg">
<circle cx="26.5" cy="26.5" r="25.5" stroke="#E42A2B" stroke-width="2"/>
<path d="M22.6873 20.5151H18.9786C18.5628 20.5151 18.2246 20.8533 18.2246 21.2691V35.2462C18.2246 35.6618 18.5628 36 18.9786 36H22.6873C23.1029 36 23.4411 35.6618 23.4411 35.2462V21.2691C23.4411 20.8533 23.1029 20.5151 22.6873 20.5151ZM22.1502 34.7091H19.5155V21.806H22.1502V34.7091Z" fill="#E42A2B"/>
<path d="M22.1502 34.7091H19.5155V21.806H22.1502V34.7091Z" fill="#E42A2B"/>
<path d="M20.8329 14C19.3828 14 18.2031 15.1796 18.2031 16.6296C18.2031 18.0798 19.3828 19.2595 20.8329 19.2595C22.2828 19.2595 23.4626 18.0798 23.4626 16.6296C23.4626 15.1796 22.283 14 20.8329 14ZM20.8329 17.9686C20.0946 17.9686 19.494 17.368 19.494 16.6296C19.494 15.8915 20.0946 15.2909 20.8329 15.2909C21.5711 15.2909 22.1717 15.8915 22.1717 16.6296C22.1717 17.3678 21.5711 17.9686 20.8329 17.9686Z" fill="#E42A2B"/>
<path d="M20.8329 17.9686C20.0946 17.9686 19.494 17.368 19.494 16.6296C19.494 15.8915 20.0946 15.2909 20.8329 15.2909C21.5711 15.2909 22.1717 15.8915 22.1717 16.6296C22.1717 17.3678 21.5711 17.9686 20.8329 17.9686Z" fill="#E42A2B"/>
<path d="M35.4357 22.1538C34.5491 21.4137 33.422 21.018 32.2632 21.0394C31.5435 21.0527 30.8402 21.2263 30.2029 21.5405V21.2353C30.2029 20.8377 29.8805 20.5153 29.4828 20.5153H25.7066C25.309 20.5153 24.9866 20.8377 24.9866 21.2353V35.2799C24.9866 35.6777 25.309 35.9999 25.7066 35.9999H29.5574C29.9139 35.9999 30.2029 35.7109 30.2029 35.3546V26.9809C30.2029 26.264 30.7639 25.6574 31.4802 25.6361C32.2248 25.6141 32.8374 26.2131 32.8374 26.9528V35.368C32.8374 35.7169 33.1204 35.9999 33.4694 35.9999H37.1702C37.5192 35.9999 37.8022 35.7169 37.8022 35.368V27.2088C37.8022 25.2517 36.9396 23.4091 35.4357 22.1538ZM36.5113 34.709H34.1285V26.9528C34.1285 25.5147 32.9585 24.3447 31.5202 24.3447C30.0821 24.3447 28.912 25.5147 28.912 26.9528V34.709H26.2775V21.806H28.912V22.7441C28.9118 22.8962 28.9655 23.0489 29.0743 23.1719C29.3105 23.4388 29.7185 23.4636 29.9854 23.2273C30.6214 22.6644 31.4388 22.3458 32.2871 22.33C33.1362 22.3139 33.9603 22.6036 34.6086 23.1447C35.8179 24.1542 36.5113 25.6354 36.5113 27.2088V34.709Z" fill="#E42A2B"/>
<path d="M36.5113 34.709H34.1285V26.9528C34.1285 25.5147 32.9585 24.3447 31.5202 24.3447C30.0821 24.3447 28.912 25.5147 28.912 26.9528V34.709H26.2775V21.806H28.912V22.7441C28.9118 22.8962 28.9655 23.0489 29.0743 23.1719C29.3105 23.4388 29.7185 23.4636 29.9854 23.2273C30.6214 22.6644 31.4388 22.3458 32.2871 22.33C33.1362 22.3139 33.9603 22.6036 34.6086 23.1447C35.8179 24.1542 36.5113 25.6354 36.5113 27.2088V34.709Z" fill="#E42A2B"/>
</svg>
