<svg width="53" height="53" viewBox="0 0 53 53" fill="none" xmlns="http://www.w3.org/2000/svg">
<circle cx="26.5" cy="26.5" r="25.5" stroke="#E42A2B" stroke-width="2"/>
<path d="M37.9975 26.0351C37.9288 23.0262 36.6943 20.2223 34.5214 18.1399C32.3516 16.0605 29.5015 14.9468 26.4988 15.0026C23.4948 14.9463 20.6461 16.0607 18.4764 18.1399C16.3034 20.2223 15.069 23.0262 15.0002 26.0349L15 26.0444V26.0539C15.0158 29.1203 16.3289 32.0355 18.6081 34.0788V36.8588C18.6081 37.3984 18.9849 37.8685 19.5039 37.9766C19.5808 37.9926 19.6582 38.0005 19.7352 38.0005C19.944 38.0005 20.1493 37.9422 20.3301 37.8292L22.5644 36.4335C23.8245 36.8746 25.1394 37.0982 26.4761 37.0982H26.493C26.5669 37.0996 26.6402 37.1003 26.7139 37.1003C29.6386 37.1001 32.4035 35.9904 34.5214 33.9609C36.6943 31.8785 37.9288 29.0747 37.9975 26.0658L37.9979 26.0504L37.9975 26.0351ZM33.588 32.987C31.723 34.7742 29.2887 35.7514 26.7132 35.7514C26.6463 35.7514 26.5793 35.7507 26.5121 35.7495L26.5047 35.7493H26.4975C25.2546 35.7518 24.0305 35.5357 22.8626 35.1074C22.5735 35.0014 22.2587 35.0339 21.999 35.1962L19.957 36.4717V33.9145C19.957 33.6294 19.833 33.3579 19.6168 33.1698C17.5563 31.3787 16.3657 28.7864 16.3491 26.0564C16.4117 23.4105 17.4984 20.9454 19.4097 19.1138C21.3231 17.2803 23.8372 16.2997 26.4854 16.3515L26.4988 16.3516L26.5121 16.3515C29.1621 16.2992 31.6746 17.2803 33.588 19.1138C35.4975 20.9439 36.5841 23.407 36.6485 26.0504C36.5843 28.6939 35.4977 31.1569 33.588 32.987Z" fill="#E42A2B"/>
<path fill-rule="evenodd" clip-rule="evenodd" d="M33.588 32.987C31.723 34.7742 29.2887 35.7514 26.7132 35.7514C26.6463 35.7514 26.5793 35.7507 26.5121 35.7495L26.5047 35.7493H26.4975C25.2546 35.7518 24.0305 35.5357 22.8626 35.1074C22.5735 35.0014 22.2587 35.0339 21.999 35.1962L19.957 36.4717V33.9145C19.957 33.6294 19.833 33.3579 19.6168 33.1698C17.5563 31.3787 16.3657 28.7864 16.3491 26.0564C16.4117 23.4105 17.4984 20.9454 19.4097 19.1138C21.3231 17.2803 23.8372 16.2997 26.4854 16.3515L26.4988 16.3516L26.5121 16.3515C29.1621 16.2992 31.6746 17.2803 33.588 19.1138C35.4975 20.9439 36.5841 23.407 36.6485 26.0504C36.5843 28.6939 35.4977 31.1569 33.588 32.987ZM28.4429 24.6893L32.7247 22.3547C33.2131 22.0887 33.8321 22.2238 34.165 22.6692C34.4977 23.1124 34.4547 23.7429 34.0645 24.1369L28.65 29.5514C28.2369 29.9646 27.5655 29.9904 27.1218 29.61L24.5542 27.4097L20.2722 29.7442C20.1008 29.8372 19.9155 29.8825 19.7319 29.8825C19.4428 29.8825 19.1583 29.7698 18.9409 29.5538C18.7277 29.342 18.6098 29.0597 18.6089 28.7589C18.6078 28.4583 18.7242 28.1754 18.9362 27.9621L24.3498 22.5485C24.7628 22.1352 25.4342 22.1094 25.878 22.4898L28.4429 24.6893Z" fill="#E42A2B"/>
<path d="M27.8424 28.4511L25.2417 26.2224C25.0599 26.0666 24.83 25.9862 24.5988 25.9862C24.4373 25.9862 24.2752 26.0253 24.1285 26.1054L20.9887 27.8171L25.1571 23.6487L27.7549 25.8764C28.0637 26.1412 28.5112 26.1884 28.8686 25.9936L32.0161 24.2774L27.8424 28.4511Z" fill="#E42A2B"/>
</svg>
