<svg width="53" height="53" viewBox="0 0 53 53" fill="none" xmlns="http://www.w3.org/2000/svg">
<circle cx="26.5" cy="26.5" r="25.5" stroke="#E42A2B" stroke-width="2"/>
<path d="M38.8019 19.1605C38.5668 18.8736 38.177 18.7672 37.8304 18.8949L15.8152 26.8662C15.3754 27.0264 15.0667 27.4147 15.0094 27.8798C14.9526 28.3427 15.1562 28.7918 15.5382 29.0503L18.685 31.2027C18.9899 31.4113 19.3819 31.4337 19.7084 31.2611L26.5346 27.6543L21.2145 31.6346C20.9647 31.8215 20.8155 32.1197 20.8155 32.4319V36.1188C20.8155 36.4991 21.0237 36.8475 21.3588 37.0284C21.6944 37.2093 22.0998 37.1913 22.4186 36.9807L24.8094 35.3918L27.1605 36.998C27.3664 37.1394 27.6118 37.2139 27.8594 37.2139C27.943 37.2139 28.0271 37.2053 28.1099 37.188C28.44 37.1191 28.732 36.9147 28.9113 36.6274L38.8717 20.171C39.0656 19.8542 39.0378 19.4487 38.8019 19.1605ZM27.8068 35.7334L25.3721 34.0699C25.2027 33.9539 25.0075 33.896 24.8125 33.896C24.6217 33.896 24.4307 33.9516 24.2635 34.0627L22.2225 35.4193V32.64L31.6167 25.6117C32.0362 25.2978 32.1418 24.7264 31.8622 24.2828C31.5824 23.8392 31.0223 23.6893 30.5593 23.9341L19.2726 29.8976L16.611 28.077L36.8839 20.7367L27.8068 35.7334Z" fill="#E42A2B"/>
<path d="M27.8068 35.7334L25.3721 34.0699C25.2027 33.9539 25.0075 33.896 24.8125 33.896C24.6217 33.896 24.4307 33.9516 24.2635 34.0627L22.2225 35.4193V32.64L31.6167 25.6117C32.0362 25.2978 32.1418 24.7264 31.8622 24.2828C31.5824 23.8392 31.0223 23.6893 30.5593 23.9341L19.2726 29.8976L16.611 28.077L36.8839 20.7367L27.8068 35.7334Z" fill="#E42A2B"/>
</svg>
