<svg width="53" height="53" viewBox="0 0 53 53" fill="none" xmlns="http://www.w3.org/2000/svg">
<circle cx="26.5" cy="26.5" r="25.5" stroke="#212121" stroke-width="2"/>
<path d="M24.9905 36.1835C21.4856 36.1835 18.7154 35.5711 17.3901 34.5038L17.3643 34.4829L17.3409 34.4595C17.0261 34.1446 16.9229 33.7314 17.0581 33.326L17.0705 33.2924C17.2345 32.882 17.6365 32.6058 18.0722 32.6033C18.9687 32.5877 19.7532 32.4809 20.465 32.2734C19.3295 31.7453 18.5408 30.8309 18.0715 29.5075C17.9137 29.0948 18.0499 28.6372 18.4136 28.3644C18.5033 28.2969 18.6047 28.246 18.7121 28.2119C18.0811 27.4835 17.6151 26.6547 17.3541 25.7782L17.3459 25.7509L17.3403 25.7231C17.2517 25.2797 17.4499 24.8239 17.8131 24.6276C17.9655 24.5402 18.131 24.4948 18.2971 24.491C18.118 24.1052 17.9877 23.7091 17.9105 23.3107C17.6961 22.2064 17.873 21.0995 18.436 20.0206L18.5663 19.7601C18.6706 19.5516 18.8699 19.4052 19.0996 19.3679C19.3294 19.3307 19.5649 19.4066 19.7295 19.5712L19.9667 19.8088C21.8413 21.774 23.5204 22.7065 26.4233 23.3445C26.5529 22.2302 27.0347 21.1944 27.8119 20.3792C28.7369 19.4092 29.972 18.865 31.2898 18.8464H31.2984C32.2599 18.8464 33.4525 19.3953 34.1738 19.7824C34.7926 19.5798 35.5381 19.2663 36.3116 18.9348C36.6735 18.765 37.1197 18.8427 37.4043 19.1272C37.6832 19.4062 37.7606 19.7995 37.6126 20.1818C37.5563 20.3383 37.4926 20.492 37.4216 20.6422C37.5275 20.6908 37.6244 20.7566 37.7063 20.8385C37.9538 21.086 38.057 21.4735 37.9691 21.8256L37.9596 21.8591C37.6632 22.8143 37.0938 23.5923 36.3408 24.0807C36.215 30.7779 31.1717 36.1835 24.9905 36.1835ZM18.5711 33.8179C19.82 34.5244 22.2 34.9519 24.9905 34.9519C27.6733 34.9519 30.2051 33.8001 32.1192 31.7086C34.049 29.6 35.1117 26.7999 35.1117 23.824V23.7905C35.1117 23.521 35.2601 23.2751 35.4988 23.1485C35.9832 22.892 36.3754 22.4551 36.6304 21.8964C36.3674 21.9379 36.1 21.8323 35.9361 21.6122C35.7456 21.3563 35.7435 21.0107 35.9308 20.7526C36.0319 20.6132 36.1235 20.4682 36.2052 20.3183C35.5373 20.5988 34.903 20.8504 34.3523 21.0175C34.1522 21.078 33.9292 21.0543 33.7464 20.9523C32.766 20.4061 31.8529 20.0796 31.3024 20.078C29.271 20.109 27.6193 21.8488 27.6193 23.9583C27.6193 24.1763 27.5226 24.3808 27.3542 24.5193C27.1856 24.6578 26.9665 24.7132 26.7524 24.6709C23.4052 24.0115 21.4217 23.0226 19.359 20.9499C19.0634 21.6582 18.9827 22.3716 19.1193 23.0761C19.2579 23.7897 19.6266 24.5048 20.1856 25.1439C20.398 25.3864 20.4262 25.7335 20.2558 26.0073C20.0859 26.2801 19.7631 26.4077 19.4528 26.3245C19.2102 26.2595 18.9872 26.1741 18.7757 26.0643C19.2065 27.0001 19.9475 27.8656 20.879 28.5039C21.149 28.689 21.2618 29.0339 21.1535 29.3428C21.045 29.6522 20.742 29.8514 20.4145 29.827C20.0577 29.8006 19.7416 29.7328 19.4507 29.6186C19.973 30.6823 20.8076 31.2675 22.0933 31.4912C22.3995 31.5445 22.6379 31.7863 22.6866 32.0928C22.7354 32.3993 22.5837 32.7031 22.3093 32.8487C21.2134 33.4297 20.0156 33.7414 18.5711 33.8179Z" fill="#151515"/>
</svg>
