<svg width="53" height="53" viewBox="0 0 53 53" fill="none" xmlns="http://www.w3.org/2000/svg">
<circle cx="26.5" cy="26.5" r="25.5" stroke="#212121" stroke-width="2"/>
<path d="M34.7332 18.2668C32.6264 16.1601 29.826 15 26.8464 15C26.8462 15 26.8455 15 26.8453 15C25.3717 15.0002 23.9356 15.2855 22.5772 15.8483C21.2187 16.411 20.0016 17.2247 18.9594 18.2668C16.8529 20.3734 15.6928 23.1744 15.6928 26.1536C15.6928 27.9303 16.1215 29.6959 16.9337 31.2691L15.059 36.625C14.9268 37.0028 15.0204 37.4134 15.3036 37.6964C15.5017 37.8947 15.7624 38 16.0306 38C16.1455 38 16.2617 37.9807 16.375 37.941L21.7309 36.0664C23.3041 36.8787 25.0697 37.3074 26.8464 37.3074C29.8256 37.3074 32.6264 36.1471 34.7332 34.0406C36.8398 31.934 38 29.133 38 26.1538C38 23.1744 36.8399 20.3734 34.7332 18.2668ZM33.7793 33.0867C31.9275 34.9386 29.4652 35.9583 26.8464 35.9583C25.2443 35.9583 23.6527 35.5621 22.2437 34.8121C21.9882 34.6763 21.6862 34.653 21.4151 34.7479L16.5491 36.4509L18.2523 31.5849C18.3472 31.3135 18.3237 31.0115 18.1879 30.7562C17.4381 29.3475 17.0417 27.7559 17.0417 26.1536C17.0417 23.5348 18.0615 21.0725 19.9133 19.2207C21.765 17.3691 24.2269 16.3492 26.8455 16.3489H26.8464C29.4654 16.3489 31.9275 17.3688 33.7793 19.2207C35.6313 21.0725 36.6511 23.5346 36.6511 26.1536C36.6511 28.7726 35.6313 31.2349 33.7793 33.0867Z" fill="#151515"/>
<path d="M30.9915 27.15C30.4784 26.6369 29.6435 26.6369 29.1304 27.15L28.5692 27.7111C27.1758 26.9519 26.0482 25.8243 25.2887 24.4308L25.8499 23.8696C26.3631 23.3565 26.3631 22.5216 25.8499 22.0085L24.3376 20.4963C23.8245 19.9832 22.9896 19.9832 22.4765 20.4963L21.2668 21.706C20.5738 22.399 20.5393 23.5903 21.1694 25.0606C21.7165 26.3372 22.7178 27.7403 23.9888 29.0112C25.2597 30.2822 26.6629 31.2835 27.9394 31.8306C28.638 32.13 29.2734 32.2793 29.8225 32.2793C30.4291 32.2793 30.9303 32.097 31.294 31.7332L32.5037 30.5233V30.5235C32.7524 30.2749 32.8893 29.9444 32.8893 29.593C32.8893 29.2413 32.7524 28.9109 32.5037 28.6624L30.9915 27.15ZM30.3401 30.7793C30.1424 30.9771 29.5342 31.0464 28.471 30.5909C27.3483 30.1097 26.0952 29.2099 24.9427 28.0574C23.7901 26.9048 22.8905 25.6519 22.4093 24.5292C21.9536 23.466 22.0229 22.8577 22.2207 22.6599L23.4072 21.4733L24.8728 22.9391L24.1704 23.6417C23.8528 23.9593 23.7761 24.441 23.9798 24.8404C24.9034 26.6513 26.3488 28.0967 28.1597 29.0202C28.5592 29.2239 29.0409 29.1474 29.3585 28.8296L30.0609 28.1272L31.5267 29.593L30.3401 30.7793Z" fill="#151515"/>
</svg>
